<svg width="24" height="24" viewBox="0 0 24 24" fill="none" xmlns="http://www.w3.org/2000/svg">
<path d="M18.6709 3.66504L22.75 11.8232V20.75H1.25V11.8232L5.3291 3.66504L5.53613 3.25H18.4639L18.6709 3.66504ZM2.75 19.25H21.25V12.75H15.6748C15.5288 13.4651 15.1752 14.1276 14.6514 14.6514C13.9481 15.3546 12.9946 15.75 12 15.75C11.0054 15.75 10.0519 15.3546 9.34863 14.6514C8.82482 14.1276 8.47116 13.4651 8.3252 12.75H2.75V19.25ZM3.21387 11.25H9.75V12C9.75 12.5967 9.98722 13.1689 10.4092 13.5908C10.8311 14.0128 11.4033 14.25 12 14.25C12.5967 14.25 13.1689 14.0128 13.5908 13.5908C14.0128 13.1689 14.25 12.5967 14.25 12V11.25H20.7861L17.5361 4.75H6.46387L3.21387 11.25Z" fill="#6A7482"/>
</svg>
