<svg width="24" height="24" viewBox="0 0 24 24" fill="none" xmlns="http://www.w3.org/2000/svg">
<path d="M12.001 2C17.5236 2.00012 22.001 6.47735 22.001 12C22.0009 17.5225 17.5235 21.9999 12.001 22C6.47833 22 2.0011 17.5226 2.00098 12C2.00098 6.47728 6.47825 2 12.001 2ZM12.001 3.5C7.30668 3.5 3.50098 7.3057 3.50098 12C3.5011 16.6942 7.30675 20.5 12.001 20.5C16.6951 20.4999 20.5009 16.6941 20.501 12C20.501 7.30578 16.6952 3.50012 12.001 3.5ZM12.7529 16.4502H11.2529V11.25H12.7529V16.4502ZM12.7617 9.0498H11.2529V7.5498H12.7617V9.0498Z" fill="#292D33"/>
</svg>
