<svg width="25" height="24" viewBox="0 0 25 24" fill="none" xmlns="http://www.w3.org/2000/svg">
<path d="M14.9004 1.25708C15.7394 1.25713 16.542 1.59421 17.1318 2.19067C17.7212 2.78669 18.0497 3.59284 18.0498 4.43091V6.15454H23.5V21.7502H2V6.15454H7.4502V4.43091C7.4503 3.59279 7.77976 2.7867 8.36914 2.19067C8.95898 1.59429 9.7616 1.25708 10.6006 1.25708H14.9004ZM7.4502 6.15454V21.7336H9.4502V6.15454H7.4502ZM16.0498 6.15454V21.7336H18.0498V6.15454H16.0498ZM10.6006 3.25708C10.2993 3.25708 10.0076 3.37798 9.79102 3.59692C9.57418 3.8162 9.4503 4.11604 9.4502 4.43091V6.15454H16.0498V4.43091C16.0497 4.11603 15.9258 3.8162 15.709 3.59692C15.4925 3.37815 15.2016 3.25713 14.9004 3.25708H10.6006Z" fill="#2CB34F"/>
</svg>
