<svg width="25" height="24" viewBox="0 0 25 24" fill="none" xmlns="http://www.w3.org/2000/svg">
<path d="M14.75 2.25C15.4793 2.25 16.1786 2.53994 16.6943 3.05566C17.2101 3.57139 17.5 4.27065 17.5 5V6.25H23.5V21.75H2V6.25H8V5C8 4.27065 8.28994 3.57139 8.80566 3.05566C9.32139 2.53994 10.0207 2.25 10.75 2.25H14.75ZM17.5 20.25H22V7.75H17.5V20.25ZM9.5 20.25H16V7.75H9.5V20.25ZM3.5 20.25H8V7.75H3.5V20.25ZM10.75 3.75C10.4185 3.75 10.1006 3.88179 9.86621 4.11621C9.63179 4.35063 9.5 4.66848 9.5 5V6.25H16V5C16 4.66848 15.8682 4.35063 15.6338 4.11621C15.4288 3.9112 15.16 3.78436 14.874 3.75586L14.75 3.75H10.75Z" fill="#6A7482"/>
</svg>
