<svg width="16" height="16" viewBox="0 0 16 16" fill="none" xmlns="http://www.w3.org/2000/svg">
<path fill-rule="evenodd" clip-rule="evenodd" d="M2 6.36223C2 2.86129 4.86129 0 8.36224 0C11.8632 0 14.7245 2.86129 14.7245 6.36223C14.7245 8.50753 13.6228 10.4238 11.9885 11.5576L11.9349 11.6918L11.9204 11.7255L11.4293 12.7979L10.9998 13.0736L10.2714 15.4237L9.55502 15.9516H7.23997L6.52359 15.4237L5.68176 12.7078L6.39813 11.7357H7.00928L10.266 11.7356L10.549 11.1177L10.6825 10.7839L10.9762 10.4297C12.3153 9.57757 13.2245 8.05609 13.2245 6.36223C13.2245 3.68972 11.0348 1.5 8.36224 1.5C5.68972 1.5 3.5 3.68972 3.5 6.36223C3.5 8.11704 4.46941 9.7006 5.93402 10.555L5.17821 11.8506C3.27548 10.7407 2 8.6763 2 6.36223ZM7.41581 13.2357L7.7927 14.4516H9.00229L9.37918 13.2357H7.41581ZM9.25 5.25V6C9.25 6.04824 9.27077 6.12517 9.37819 6.21037C9.48892 6.29819 9.67185 6.37245 9.90306 6.37245C10.1343 6.37245 10.3172 6.29819 10.4279 6.21037C10.5353 6.12517 10.5561 6.04824 10.5561 6V5.25H12.0561V6C12.0561 7.19837 10.9175 7.87245 9.90306 7.87245C9.40687 7.87245 8.88099 7.71119 8.47317 7.4062C8.06339 7.71814 7.53102 7.88319 7.02904 7.88319C6.01456 7.88319 4.87598 7.20911 4.87598 6.01074V5.26074H6.37598V6.01074C6.37598 6.05898 6.39675 6.13591 6.50417 6.22111C6.6149 6.30893 6.79783 6.38319 7.02904 6.38319C7.26024 6.38319 7.44317 6.30893 7.5539 6.22111C7.66132 6.13591 7.68209 6.05898 7.68209 6.01074V5.26074V5.25H7.75H9.25Z" fill="#3A3F46"/>
</svg>
