<svg width="25" height="24" viewBox="0 0 25 24" fill="none" xmlns="http://www.w3.org/2000/svg">
<path fill-rule="evenodd" clip-rule="evenodd" d="M11.4399 4.33713C11.6609 3.98448 12.053 3.75 12.4999 3.75C12.9468 3.75 13.3389 3.98448 13.5599 4.33712C13.2136 4.27983 12.8594 4.25 12.4999 4.25C12.1404 4.25 11.7863 4.27983 11.4399 4.33713ZM9.75365 4.85556C9.82876 3.40389 11.0296 2.25 12.4999 2.25C13.9703 2.25 15.1711 3.40388 15.2462 4.85554C17.58 5.92829 19.2499 8.30514 19.2499 11V13.8229L21.1707 17.6646L20.4999 18.75H16.1749C15.8275 20.4617 14.3142 21.75 12.4999 21.75C10.6857 21.75 9.17237 20.4617 8.82493 18.75H4.49992L3.8291 17.6646L5.74992 13.8229V11C5.74992 8.30515 7.41986 5.92832 9.75365 4.85556ZM10.3779 18.75C10.6868 19.6239 11.5202 20.25 12.4999 20.25C13.4796 20.25 14.313 19.6239 14.6219 18.75H10.3779Z" fill="#2CB34F"/>
</svg>
