<svg width="25" height="24" viewBox="0 0 25 24" fill="none" xmlns="http://www.w3.org/2000/svg">
<path d="M12.5 2.25C13.9706 2.25004 15.1674 3.40448 15.2422 4.85645C17.5776 5.92854 19.25 8.304 19.25 11V13.8232L21.1709 17.665L20.5 18.75H16.1748C15.8274 20.4617 14.3142 21.75 12.5 21.75C10.6858 21.75 9.17265 20.4617 8.8252 18.75H4.5L3.8291 17.665L5.75 13.8232V11C5.75 8.30427 7.42184 5.9287 9.75684 4.85645C9.83159 3.40444 11.0294 2.25 12.5 2.25ZM10.3809 18.75C10.69 19.6234 11.5206 20.25 12.5 20.25C13.4793 20.25 14.31 19.6234 14.6191 18.75H10.3809ZM12.5 5.75C9.67304 5.75 7.25 8.16088 7.25 11V14L7.1709 14.335L5.71387 17.25H19.2861L17.8291 14.335L17.75 14V11C17.75 8.1609 15.327 5.75004 12.5 5.75ZM12.5 3.75C12.053 3.75 11.6614 3.98506 11.4404 4.33789C11.7866 4.28064 12.1406 4.25 12.5 4.25C12.8588 4.25 13.212 4.28083 13.5576 4.33789C13.3366 3.98553 12.9467 3.75003 12.5 3.75Z" fill="#6A7482"/>
</svg>
