<svg width="24" height="24" viewBox="0 0 24 24" fill="none" xmlns="http://www.w3.org/2000/svg">
<path d="M4 3H20V21H4V3Z" stroke="#6A7482" stroke-width="1.5"/>
<path d="M7 7H16" stroke="#6A7482" stroke-width="1.5"/>
<path d="M7 11H12.6667" stroke="#6A7482" stroke-width="1.5"/>
<path d="M20.5 14.5C20.2883 14.762 18.8452 16.7164 17.6123 17.1274C16.9892 17.3351 16.4058 17.4376 15.9801 17.4887C15.9193 17.496 15.8615 17.5022 15.807 17.5076C15.408 18.6194 14.7675 19.6315 13.9291 20.4698C12.6271 21.7719 10.377 20.6176 10.5881 20.5573C11.6553 20.2531 12.0837 20.1939 12.8684 19.4092C13.6531 18.6245 14.2247 17.6525 14.5289 16.5853L14.6841 16.0409C14.7808 16.0358 15.6247 16.0206 15.8014 15.9993C16.157 15.9567 16.6362 15.8716 17.138 15.7044C17.5204 15.5769 17.9472 15.2423 18.3246 14.8833C18.7432 14.4766 19.1082 14.0265 19.3415 13.7598C19.5579 13.5077 20.4606 14.5322 20.5 14.5Z" fill="#6A7482"/>
</svg>
