<svg width="25" height="24" viewBox="0 0 25 24" fill="none" xmlns="http://www.w3.org/2000/svg">
<path d="M16.25 14.1504C17.5098 14.1504 18.7176 14.6512 19.6084 15.542C20.4992 16.4328 21 17.6406 21 18.9004V21.9004H19.5V18.9004C19.5 18.0384 19.1573 17.212 18.5479 16.6025C17.9764 16.0311 17.2144 15.6941 16.4111 15.6543L16.25 15.6504H8.25C7.38805 15.6504 6.56164 15.993 5.95215 16.6025C5.34266 17.212 5 18.0384 5 18.9004V21.9004H3.5V18.9004C3.5 17.6406 4.0008 16.4328 4.8916 15.542C5.7824 14.6512 6.99022 14.1504 8.25 14.1504H16.25ZM12.25 2.15039C14.8734 2.15039 17 4.27704 17 6.90039C17 9.52374 14.8734 11.6504 12.25 11.6504C9.62665 11.6504 7.5 9.52374 7.5 6.90039C7.5 4.27704 9.62665 2.15039 12.25 2.15039ZM12.25 3.65039C10.4551 3.65039 9 5.10546 9 6.90039C9 8.69532 10.4551 10.1504 12.25 10.1504C14.0449 10.1504 15.5 8.69532 15.5 6.90039C15.5 5.10547 14.0449 3.65039 12.25 3.65039Z" fill="#6A7482"/>
</svg>
