<svg width="25" height="24" viewBox="0 0 25 24" fill="none" xmlns="http://www.w3.org/2000/svg">
<path fill-rule="evenodd" clip-rule="evenodd" d="M16.25 7C16.25 9.20914 14.4591 11 12.25 11C10.0409 11 8.25 9.20914 8.25 7C8.25 4.79086 10.0409 3 12.25 3C14.4591 3 16.25 4.79086 16.25 7ZM20.25 19V21H4.25V19C4.25 17.9391 4.67143 16.9217 5.42157 16.1716C6.17172 15.4214 7.18913 15 8.25 15H16.25C17.3109 15 18.3283 15.4214 19.0784 16.1716C19.8286 16.9217 20.25 17.9391 20.25 19Z" fill="#2CB34F"/>
<path d="M20.25 21V22H21.25V21H20.25ZM4.25 21H3.25V22H4.25V21ZM5.42157 16.1716L6.12868 16.8787L6.12868 16.8787L5.42157 16.1716ZM12.25 11V12C15.0114 12 17.25 9.76142 17.25 7H16.25H15.25C15.25 8.65685 13.9069 10 12.25 10V11ZM8.25 7H7.25C7.25 9.76142 9.48858 12 12.25 12V11V10C10.5931 10 9.25 8.65685 9.25 7H8.25ZM12.25 3V2C9.48858 2 7.25 4.23858 7.25 7H8.25H9.25C9.25 5.34315 10.5931 4 12.25 4V3ZM16.25 7H17.25C17.25 4.23858 15.0114 2 12.25 2V3V4C13.9069 4 15.25 5.34315 15.25 7H16.25ZM20.25 21H21.25V19H20.25H19.25V21H20.25ZM4.25 21V22H20.25V21V20H4.25V21ZM4.25 19H3.25V21H4.25H5.25V19H4.25ZM5.42157 16.1716L4.71447 15.4645C3.77678 16.4021 3.25 17.6739 3.25 19H4.25H5.25C5.25 18.2044 5.56607 17.4413 6.12868 16.8787L5.42157 16.1716ZM8.25 15V14C6.92392 14 5.65215 14.5268 4.71447 15.4645L5.42157 16.1716L6.12868 16.8787C6.69129 16.3161 7.45435 16 8.25 16V15ZM16.25 15V14H8.25V15V16H16.25V15ZM19.0784 16.1716L19.7855 15.4645C18.8479 14.5268 17.5761 14 16.25 14V15V16C17.0456 16 17.8087 16.3161 18.3713 16.8787L19.0784 16.1716ZM20.25 19H21.25C21.25 17.6739 20.7232 16.4021 19.7855 15.4645L19.0784 16.1716L18.3713 16.8787C18.9339 17.4413 19.25 18.2044 19.25 19H20.25Z" fill="#2CB34F"/>
</svg>
