<svg width="24" height="24" viewBox="0 0 24 24" fill="none" xmlns="http://www.w3.org/2000/svg">
<path d="M5.64648 2.5H18.3524L17.5958 11.3115C17.4467 13.0489 16.3275 14.5525 14.7059 15.194C12.9671 15.8819 11.0317 15.8819 9.29293 15.194C7.67136 14.5525 6.5522 13.0489 6.40303 11.3115L5.64648 2.5Z" fill="#2CB34F" stroke="#2CB34F" stroke-width="1.5"/>
<path d="M12 15.2059V17.853" stroke="#2CB34F" stroke-width="2"/>
<path d="M7.76465 20.3232C7.76465 19.2187 8.66008 18.3232 9.76465 18.3232H14.2352C15.3398 18.3232 16.2352 19.2187 16.2352 20.3232V21.4997H7.76465V20.3232Z" fill="#2CB34F" stroke="#2CB34F" stroke-width="1.5"/>
<path d="M6.14706 5.14746H2.5L3.26624 10.8266C3.40011 11.8189 4.24706 12.5592 5.24828 12.5592H7.14706" stroke="#2CB34F" stroke-width="2"/>
<path d="M17.8529 5.14746H21.5L20.7338 10.8266C20.5999 11.8189 19.7529 12.5592 18.7517 12.5592H16.8529" stroke="#2CB34F" stroke-width="2"/>
</svg>
