<svg preserveAspectRatio="none" width="100%" height="100%" overflow="visible" style="display: block;" viewBox="0 0 20 20" fill="none" xmlns="http://www.w3.org/2000/svg">
<path id="Union" fill-rule="evenodd" clip-rule="evenodd" d="M9 2.5C12.5899 2.5 15.5 5.41015 15.5 9C15.5 12.5899 12.5899 15.5 9 15.5C5.41015 15.5 2.5 12.5899 2.5 9C2.5 5.41015 5.41015 2.5 9 2.5ZM0 9C0 13.9706 4.02944 18 9 18C11.0346 18 12.9115 17.3249 14.4189 16.1864L18 19.7676L19.7676 18L16.1864 14.4189C17.3249 12.9115 18 11.0346 18 9C18 4.02944 13.9706 0 9 0C4.02944 0 0 4.02944 0 9Z" fill="var(--fill-0, #2CB34F)"/>
</svg>
