<svg preserveAspectRatio="none" width="100%" height="100%" overflow="visible" style="display: block;" viewBox="0 0 22 20" fill="none" xmlns="http://www.w3.org/2000/svg">
<path id="Union" fill-rule="evenodd" clip-rule="evenodd" d="M14.75 19.5H6.75H0V4H6V2.75C6 2.02065 6.28994 1.32139 6.80566 0.805664C7.32139 0.289939 8.02065 0 8.75 0H12.75C13.4793 0 14.1786 0.289939 14.6943 0.805664C15.2101 1.32139 15.5 2.02065 15.5 2.75V4H21.5V19.5H14.75ZM14 4V2.75C14 2.41848 13.8682 2.10063 13.6338 1.86621C13.4288 1.6612 13.16 1.53436 12.874 1.50586L12.75 1.5H8.75C8.41848 1.5 8.10063 1.63179 7.86621 1.86621C7.63179 2.10063 7.5 2.41848 7.5 2.75V4H14ZM7.5 5.5H14V18H7.5V5.5ZM6 5.5H1.5V18H6V5.5ZM15.5 18V5.5H20V18H15.5Z" fill="var(--fill-0, #6A7482)"/>
</svg>
