<svg preserveAspectRatio="none" width="100%" height="100%" overflow="visible" style="display: block;" viewBox="0 0 18 20" fill="none" xmlns="http://www.w3.org/2000/svg">
<path id="Union" fill-rule="evenodd" clip-rule="evenodd" d="M8.75 1.5C10.5449 1.5 12 2.95507 12 4.75C12 6.54493 10.5449 8 8.75 8C6.95508 8 5.5 6.54493 5.5 4.75C5.5 2.95507 6.95508 1.5 8.75 1.5ZM8.75 9.5C11.3734 9.5 13.5 7.37335 13.5 4.75C13.5 2.12665 11.3734 0 8.75 0C6.12665 0 4 2.12665 4 4.75C4 7.37335 6.12665 9.5 8.75 9.5ZM15.0479 14.4521C15.6573 15.0616 16 15.888 16 16.75V19.75H17.5V16.75C17.5 15.4902 16.9992 14.2824 16.1084 13.3916C15.2176 12.5008 14.0098 12 12.75 12H4.75C3.49022 12 2.2824 12.5008 1.3916 13.3916C0.500804 14.2824 0 15.4902 0 16.75V19.75H1.5V16.75C1.5 15.888 1.84266 15.0616 2.45215 14.4521C3.06164 13.8427 3.88805 13.5 4.75 13.5H12.75L12.9111 13.5039C13.7144 13.5437 14.4764 13.8807 15.0479 14.4521Z" fill="var(--fill-0, #6A7482)"/>
</svg>
