<svg preserveAspectRatio="none" width="100%" height="100%" overflow="visible" style="display: block;" viewBox="0 0 88 16" fill="none" xmlns="http://www.w3.org/2000/svg">
<g id="Logotype">
<path id="Vector" d="M40.3715 3.77079C39.6388 3.34211 38.7877 3.09864 37.8807 3.09864C36.9736 3.09864 36.1226 3.34211 35.3899 3.77079C34.9208 4.03924 34.4994 4.38676 34.1445 4.79255C33.7896 4.38676 33.3682 4.03924 32.8991 3.77079C32.1664 3.34211 31.3154 3.09864 30.4083 3.09864C29.5013 3.09864 28.6502 3.34211 27.9175 3.77079C26.4293 4.63231 25.4267 6.24507 25.4267 8.09297V15.7926H27.9175V12.4151V8.09297C27.9175 6.71328 29.0322 5.5958 30.4083 5.5958C31.7845 5.5958 32.8991 6.71328 32.8991 8.09297V12.4151V14.9602C32.8991 15.4201 33.2706 15.7926 33.7294 15.7926H35.3899V12.4151V8.09297C35.3899 6.71328 36.5045 5.5958 37.8807 5.5958C39.2568 5.5958 40.3715 6.71328 40.3715 8.09297V12.4151V14.9602C40.3715 15.4201 40.743 15.7926 41.2017 15.7926H42.8623V8.09297C42.8623 6.24507 41.8597 4.63231 40.3715 3.77079Z" fill="var(--fill-0, #111321)"/>
<path id="Vector_2" d="M84.7906 3.77079C84.0579 3.34211 83.2069 3.09864 82.2998 3.09864C81.3927 3.09864 80.5417 3.34211 79.809 3.77079C79.7073 3.82906 79.6098 3.89149 79.5143 3.956C79.4624 3.99137 79.4105 4.02883 79.3586 4.06629C79.3129 4.09958 79.2693 4.13288 79.2258 4.16618C79.1739 4.20779 79.122 4.24941 79.0722 4.29103C79.0265 4.33057 78.9808 4.37011 78.9372 4.41173C78.8957 4.45127 78.8521 4.48873 78.8127 4.52826C78.7276 4.6115 78.6446 4.6989 78.5657 4.78839C78.5657 4.78839 78.5657 4.78839 78.5636 4.79047C78.5615 4.79255 78.5616 4.79463 78.5595 4.79671C78.4723 4.89452 78.3913 4.99856 78.3125 5.10469C78.2959 5.12758 78.2793 5.15047 78.2627 5.17545C78.1942 5.27117 78.1277 5.37106 78.0655 5.47094C78.0572 5.48551 78.0468 5.50008 78.0385 5.51464C77.9658 5.63534 77.8973 5.75812 77.8351 5.88298C77.8309 5.8913 77.8268 5.89962 77.8226 5.90795C77.7666 6.0224 77.7168 6.13894 77.669 6.25755C77.6586 6.28252 77.6483 6.30958 77.64 6.33455C77.5943 6.45524 77.5528 6.57802 77.5175 6.70288C77.5154 6.7112 77.5113 6.72161 77.5092 6.72993C77.4718 6.86311 77.4407 7.00046 77.4137 7.1378C77.4075 7.16694 77.4033 7.19815 77.3992 7.22728C77.3805 7.33549 77.366 7.44371 77.3535 7.55608C77.3494 7.59354 77.3452 7.63099 77.3411 7.67053C77.3286 7.80996 77.3224 7.94938 77.3224 8.09297V15.7926H79.8132V12.4151V8.09297C79.8132 6.71328 80.9278 5.5958 82.304 5.5958C83.6801 5.5958 84.7947 6.71328 84.7947 8.09297V12.4151V14.9602C84.7947 15.4201 85.1663 15.7926 85.625 15.7926H87.2855V8.09297C87.2814 6.24507 86.2788 4.63231 84.7906 3.77079Z" fill="var(--fill-0, #111321)"/>
<path id="Vector_3" d="M73.2707 3.30672V6.68414V11.0063C73.2707 12.386 72.1561 13.5035 70.7799 13.5035C69.4038 13.5035 68.2891 12.386 68.2891 11.0063V6.68414V3.30672H65.7983V11.0063C65.7983 12.8542 66.8009 14.467 68.2891 15.3285C69.0218 15.7572 69.8729 16.0006 70.7799 16.0006C71.687 16.0006 72.538 15.7572 73.2707 15.3285C74.7589 14.467 75.7615 12.8542 75.7615 11.0063V3.30672H73.2707Z" fill="var(--fill-0, #111321)"/>
<path id="Vector_4" d="M17.8506 3.09864C14.2971 3.09864 11.4161 5.98703 11.4161 9.54965C11.4161 13.1123 14.2971 16.0007 17.8506 16.0007C21.4042 16.0007 24.2852 13.1123 24.2852 9.54965C24.2852 5.98703 21.4042 3.09864 17.8506 3.09864ZM20.5075 12.4276C19.8433 13.1456 18.9549 13.5035 17.8444 13.5035C16.7422 13.5035 15.8539 13.1414 15.1813 12.4151C14.5254 11.6993 14.1975 10.7233 14.1975 9.49346C14.1975 8.34685 14.5337 7.41041 15.2063 6.68415C15.8788 5.95789 16.7588 5.5958 17.8444 5.5958C18.9466 5.5958 19.835 5.95789 20.5075 6.68415C21.1717 7.40001 21.5038 8.35933 21.5038 9.55589C21.5038 10.7525 21.1717 11.7097 20.5075 12.4276Z" fill="var(--fill-0, #111321)"/>
<path id="Vector_5" d="M7.47236 3.77072C6.73966 3.34204 5.88864 3.09857 4.98158 3.09857C4.07451 3.09857 3.22349 3.34204 2.49079 3.77072V0H0V8.0929V15.7925H2.49079V12.4151V8.0929C2.49079 6.71322 3.60541 5.59573 4.98158 5.59573C6.35774 5.59573 7.47236 6.71322 7.47236 8.0929V12.4151V14.9601C7.47236 15.42 7.84391 15.7925 8.30263 15.7925H9.96315V8.0929C9.96315 6.245 8.96061 4.63224 7.47236 3.77072Z" fill="var(--fill-0, #111321)"/>
<path id="Vector_6" d="M64.1045 3.4919C63.8077 3.36496 63.4943 3.26715 63.1705 3.20056C60.5946 2.78229 59.6751 4.55528 59.6751 4.55528V3.30669H57.1843V15.7925H59.6751V8.09293C59.6751 7.92021 59.6917 7.75165 59.7249 7.58933C59.7581 7.42702 59.8079 7.27094 59.8702 7.12111C59.9345 6.97128 60.0113 6.82978 60.1006 6.69659C60.1899 6.56341 60.2916 6.44064 60.4036 6.32618C60.5178 6.21381 60.6403 6.11184 60.7731 6.02236C60.906 5.93288 61.0471 5.85588 61.1965 5.79137C61.346 5.72894 61.5017 5.679 61.6636 5.6457C61.8255 5.61241 61.9936 5.59576 62.1659 5.59576C62.3382 5.59576 62.5063 5.61241 62.6682 5.6457C62.8301 5.679 62.9858 5.72894 63.1352 5.79137C63.2847 5.85588 63.4258 5.93288 63.5586 6.02236L64.9514 3.95179C64.6857 3.77283 64.4034 3.61676 64.1045 3.4919Z" fill="var(--fill-0, #111321)"/>
<path id="Vector_7" d="M50.152 16.0007C48.3462 16.0007 46.8808 15.4138 45.7931 14.2568C44.7013 13.0894 44.1492 11.5099 44.1492 9.56629C44.1492 7.63723 44.6868 6.05985 45.7454 4.87162C46.806 3.71044 48.2382 3.11944 49.9984 3.11944C51.7752 3.11944 53.1991 3.69171 54.2265 4.82168C55.2498 5.94748 55.7708 7.53943 55.7708 9.55172L55.7625 10.0241H46.7375L46.7542 10.2551C46.8351 11.3351 47.1942 12.2112 47.821 12.8584C48.4541 13.5035 49.274 13.8281 50.2579 13.8281C51.0217 13.8281 51.6672 13.6408 52.1758 13.2704C52.6366 12.9271 53.1389 12.3381 53.7076 11.4683L55.7916 12.6336C55.4553 13.1851 55.0983 13.6679 54.7309 14.0716C54.3241 14.5148 53.884 14.8853 53.4212 15.1724C52.9604 15.4575 52.456 15.6677 51.9225 15.8009C51.3787 15.932 50.7851 16.0007 50.152 16.0007ZM50.0607 5.31903C49.6871 5.31903 49.33 5.3773 48.9979 5.49175C48.6679 5.6062 48.3628 5.77476 48.0909 5.99118C47.819 6.2076 47.5844 6.47189 47.3914 6.77571C47.2004 7.07745 47.051 7.42497 46.9513 7.80579L46.8808 8.07423H53.2655L53.1949 7.80579C52.7652 6.15558 51.7108 5.31903 50.0607 5.31903Z" fill="var(--fill-0, #111321)"/>
</g>
</svg>
