<svg preserveAspectRatio="none" width="100%" height="100%" overflow="visible" style="display: block;" viewBox="0 0 12 8" fill="none" xmlns="http://www.w3.org/2000/svg">
<path id="Wifi" fill-rule="evenodd" clip-rule="evenodd" d="M5.75325 1.66109C7.42265 1.66116 9.02822 2.28234 10.2381 3.39622C10.3292 3.48222 10.4748 3.48113 10.5646 3.39379L11.4355 2.54264C11.4809 2.49834 11.5062 2.43833 11.5059 2.3759C11.5055 2.31346 11.4794 2.25375 11.4335 2.20996C8.25791 -0.737113 3.2481 -0.737113 0.0725372 2.20996C0.0265371 2.25371 0.000437166 2.31341 1.2993e-05 2.37585C-0.00041118 2.43828 0.0248754 2.49831 0.0702771 2.54264L0.941432 3.39379C1.03111 3.48126 1.17684 3.48235 1.2679 3.39622C2.47793 2.28226 4.08369 1.66109 5.75325 1.66109ZM5.75363 4.42791C6.67086 4.42785 7.55536 4.758 8.23526 5.3542C8.32722 5.43881 8.47208 5.43698 8.56172 5.35006L9.43162 4.49892C9.47743 4.45427 9.50285 4.39371 9.50219 4.33077C9.50153 4.26784 9.47484 4.20778 9.4281 4.16405C7.35767 2.29902 4.15135 2.29902 2.08092 4.16405C2.03415 4.20778 2.00747 4.26787 2.00685 4.33082C2.00624 4.39378 2.03175 4.45433 2.07765 4.49892L2.9473 5.35006C3.03695 5.43698 3.18181 5.43881 3.27377 5.3542C3.95322 4.75839 4.83701 4.42827 5.75363 4.42791ZM7.4959 6.29428C7.49723 6.35739 7.47161 6.41824 7.42508 6.46246L5.92034 7.933C5.87623 7.97622 5.81609 8.00054 5.75334 8.00054C5.69059 8.00054 5.63045 7.97622 5.58634 7.933L4.08135 6.46246C4.03485 6.41821 4.00928 6.35734 4.01066 6.29423C4.01204 6.23112 4.04025 6.17135 4.08863 6.12905C5.04962 5.34194 6.45707 5.34194 7.41805 6.12905C7.4664 6.17139 7.49457 6.23117 7.4959 6.29428Z" fill="var(--fill-0, black)"/>
</svg>
