<svg preserveAspectRatio="none" width="100%" height="100%" overflow="visible" style="display: block;" viewBox="0 0 14 14" fill="none" xmlns="http://www.w3.org/2000/svg">
<path id="Union" fill-rule="evenodd" clip-rule="evenodd" d="M6.08301 1.5C8.6142 1.5 10.6668 3.55185 10.667 6.08301C10.667 7.25769 10.2249 8.32931 9.49814 9.14053L9.14053 9.49814C8.32931 10.2249 7.25769 10.667 6.08301 10.667C3.55185 10.6668 1.5 8.6142 1.5 6.08301C1.50018 3.55196 3.55196 1.50018 6.08301 1.5ZM9.82202 10.8826C8.7904 11.6874 7.49264 12.167 6.08301 12.167C2.72342 12.1668 0 9.44263 0 6.08301C0.000176001 2.72353 2.72353 0.000175998 6.08301 0C9.44263 0 12.1668 2.72342 12.167 6.08301C12.167 7.49264 11.6874 8.7904 10.8826 9.82202L13.8105 12.75L12.75 13.8105L9.82202 10.8826Z" fill="var(--fill-0, white)"/>
</svg>
