<svg preserveAspectRatio="none" width="100%" height="100%" overflow="visible" style="display: block;" viewBox="0 0 18 20" fill="none" xmlns="http://www.w3.org/2000/svg">
<path id="Union" fill-rule="evenodd" clip-rule="evenodd" d="M8.67082 19.5C10.4851 19.5 11.9984 18.2117 12.3458 16.5H16.6708L17.3417 15.415L15.4208 11.5732V8.75C15.4208 6.05514 13.7509 3.67829 11.4171 2.60554C11.342 1.15388 10.1412 0 8.67082 0C7.20046 0 5.99966 1.15389 5.92455 2.60556C3.59075 3.67832 1.92082 6.05515 1.92082 8.75V11.5732L-7.80225e-05 15.415L0.67082 16.5H4.99583C5.34327 18.2117 6.85656 19.5 8.67082 19.5ZM6.55168 16.5C6.86079 17.3734 7.69145 18 8.67082 18C9.65019 18 10.4808 17.3734 10.79 16.5H6.55168ZM7.61085 2.08713C7.95717 2.02983 8.3113 2 8.67082 2C9.03034 2 9.38447 2.02983 9.73079 2.08712C9.5098 1.73448 9.11771 1.5 8.67082 1.5C8.22393 1.5 7.83184 1.73448 7.61085 2.08713ZM8.67082 3.5C11.4979 3.5 13.9208 5.91088 13.9208 8.75V11.75L13.9999 12.085L15.457 15H12.4208H4.92082H1.88469L3.34172 12.085L3.42082 11.75V8.75C3.42082 5.91088 5.84386 3.5 8.67082 3.5Z" fill="var(--fill-0, #6A7482)"/>
</svg>
