<svg preserveAspectRatio="none" width="100%" height="100%" overflow="visible" style="display: block;" viewBox="0 0 17 8" fill="none" xmlns="http://www.w3.org/2000/svg">
<path id="Cellular Connection" fill-rule="evenodd" clip-rule="evenodd" d="M16 0H15C14.4477 0 14 0.325611 14 0.727273V7.0303C14 7.43197 14.4477 7.75758 15 7.75758H16C16.5523 7.75758 17 7.43197 17 7.0303V0.727273C17 0.325611 16.5523 0 16 0ZM10.333 1.69727H11.333C11.8853 1.69727 12.333 2.02288 12.333 2.42454V7.0306C12.333 7.43226 11.8853 7.75787 11.333 7.75787H10.333C9.78072 7.75787 9.33301 7.43226 9.33301 7.0306V2.42454C9.33301 2.02288 9.78072 1.69727 10.333 1.69727ZM6.66699 3.39453H5.66699C5.11471 3.39453 4.66699 3.72014 4.66699 4.1218V7.0309C4.66699 7.43256 5.11471 7.75817 5.66699 7.75817H6.66699C7.21928 7.75817 7.66699 7.43256 7.66699 7.0309V4.1218C7.66699 3.72014 7.21928 3.39453 6.66699 3.39453ZM2 4.84766H1C0.447715 4.84766 0 5.17327 0 5.57493V7.02947C0 7.43114 0.447715 7.75675 1 7.75675H2C2.55228 7.75675 3 7.43114 3 7.02947V5.57493C3 5.17327 2.55228 4.84766 2 4.84766Z" fill="var(--fill-0, black)"/>
</svg>
